<svg width="344.706" height="65" viewBox="0 0 344.706 65" fill="none" xmlns="http://www.w3.org/2000/svg">
<g transform="translate(-20 -20)">
<rect x="20" y="20" width="344.706" height="65" rx="32.5" fill="#161513"/>
<circle cx="52.5" cy="52.5" r="30.5" fill="#F2E9D8"/>
<path fill-rule="evenodd" clip-rule="evenodd" d="M57.2573 60.6417H47.7443C47.0671 60.6417 46.5174 60.0817 46.5174 59.3917C46.5174 58.7017 47.0671 58.1417 47.7443 58.1417H57.2573C57.9346 58.1417 58.4843 58.7017 58.4843 59.3917C58.4843 60.0817 57.9346 60.6417 57.2573 60.6417ZM64.3589 42.7633C63.765 42.23 63.0894 41.6267 62.2845 40.8683C61.9197 40.5683 61.5205 40.225 61.0968 39.8617C58.7084 37.81 55.4365 35 52.4542 35C49.5063 35 46.4454 37.6533 43.9866 39.785C43.5318 40.1783 43.1065 40.5483 42.6729 40.9067C41.9106 41.6267 41.235 42.2317 40.6395 42.7667C36.7345 46.2683 36 47.1867 36 55.355C36 70 40.1569 70 52.5 70C64.8415 70 69 70 69 55.355C69 47.185 68.2655 46.2667 64.3589 42.7633Z" fill="#BF814B"/>
<path fill-rule="evenodd" clip-rule="evenodd" d="M161.829 66.7962H148.318C147.441 66.7962 146.729 67.5081 146.729 68.3852C146.729 69.2623 147.441 69.9742 148.318 69.9742H161.829C162.706 69.9742 163.418 69.2623 163.418 68.3852C163.418 67.5081 162.706 66.7962 161.829 66.7962Z" fill="#F2E9D8"/>
<path fill-rule="evenodd" clip-rule="evenodd" d="M140.13 43.4733C140.341 43.193 140.738 43.1364 141.019 43.3465L151.994 51.5678C152.275 51.7784 152.332 52.1772 152.121 52.4581L141.909 66.0593C139.452 69.3432 135.744 70 133.181 70C131.592 70 130.448 69.7458 130.321 69.7246C130.045 69.661 129.791 69.4704 129.643 69.2161C129.494 68.9407 125.85 62.4577 129.918 57.0551L140.13 43.4733Z" fill="#F2E9D8"/>
<path fill-rule="evenodd" clip-rule="evenodd" d="M156.21 47.0127L154.791 48.8998C154.58 49.1799 154.182 49.2367 153.902 49.0265L142.925 40.8039C142.645 40.5938 142.588 40.1963 142.797 39.9153L144.219 38.0085C145.681 36.0381 147.948 35 150.236 35C151.803 35 153.371 35.4873 154.727 36.5042C156.316 37.7119 157.354 39.4703 157.651 41.4407C157.926 43.4322 157.418 45.4025 156.21 47.0127Z" fill="#F2E9D8"/>
<path fill-rule="evenodd" clip-rule="evenodd" d="M247.56 50.1246L242.346 56.8505C242.133 57.1352 241.813 57.3132 241.457 57.3487C241.101 57.4021 240.745 57.2954 240.46 57.0818L235.443 53.1495L230.941 59.0036C230.692 59.3416 230.282 59.5196 229.891 59.5196C229.606 59.5196 229.322 59.4306 229.072 59.2349C228.485 58.79 228.378 57.9537 228.823 57.3665L234.161 50.4449C234.375 50.1602 234.695 49.9822 235.051 49.9466C235.407 49.8932 235.763 50 236.048 50.2135L241.065 54.1459L245.443 48.4876C245.905 47.9003 246.741 47.7936 247.329 48.2562C247.898 48.7011 248.005 49.5374 247.56 50.1246ZM256.635 45.8719C255.692 46.3167 254.624 46.5658 253.521 46.5658C249.357 46.5658 245.959 43.1672 245.959 39.0036C245.959 37.8648 246.208 36.7972 246.67 35.8363C244.713 35.4271 242.435 35.2313 239.802 35.2313C226.973 35.2313 222.418 39.7687 222.418 52.6157C222.418 65.4626 226.973 70 239.802 70C252.649 70 257.204 65.4626 257.204 52.6157C257.204 50.0356 257.026 47.7936 256.635 45.8719Z" fill="#F2E9D8"/>
<path fill-rule="evenodd" clip-rule="evenodd" d="M253.521 43.0071C254.268 43.0071 254.98 42.7936 255.567 42.4377C256.724 41.7438 257.507 40.4626 257.507 39.0035C257.507 36.7971 255.727 35 253.521 35C252.079 35 250.816 35.7651 250.104 36.9217C249.731 37.5267 249.517 38.2384 249.517 39.0035C249.517 41.21 251.314 43.0071 253.521 43.0071Z" fill="#F2E9D8"/>
<path fill-rule="evenodd" clip-rule="evenodd" d="M340.765 38.8756V36.2353C340.765 35.5534 340.212 35 339.53 35C338.848 35 338.294 35.5534 338.294 36.2353V41.6098C338.294 42.0381 338.527 42.3988 338.859 42.6195C338.663 42.7513 338.441 42.8452 338.187 42.8452C337.506 42.8452 336.952 42.2917 336.952 41.6098V38.0422C335.631 37.8841 334.192 37.8034 332.605 37.8034C330.738 37.8034 329.072 37.9154 327.575 38.141V36.2353C327.575 35.5534 327.022 35 326.34 35C325.658 35 325.104 35.5534 325.104 36.2353V41.6098C325.104 42.0381 325.337 42.3988 325.669 42.6195C325.473 42.7513 325.251 42.8452 324.997 42.8452C324.315 42.8452 323.762 42.2917 323.762 41.6098V39.0898C320.247 40.4453 318.185 42.9671 317.21 46.9827H348.003C346.968 42.7233 344.682 40.167 340.765 38.8756Z" fill="#F2E9D8"/>
<path fill-rule="evenodd" clip-rule="evenodd" d="M339.874 55.937C339.192 55.937 338.632 55.3836 338.632 54.7017C338.632 54.0198 339.177 53.4663 339.859 53.4663H339.874C340.556 53.4663 341.109 54.0198 341.109 54.7017C341.109 55.3836 340.556 55.937 339.874 55.937ZM339.874 62.2833C339.192 62.2833 338.632 61.7299 338.632 61.048C338.632 60.3644 339.177 59.8126 339.859 59.8126H339.874C340.556 59.8126 341.109 60.3644 341.109 61.048C341.109 61.7299 340.556 62.2833 339.874 62.2833ZM332.628 55.937C331.947 55.937 331.385 55.3836 331.385 54.7017C331.385 54.0198 331.932 53.4663 332.614 53.4663H332.628C333.31 53.4663 333.864 54.0198 333.864 54.7017C333.864 55.3836 333.31 55.937 332.628 55.937ZM332.628 62.2833C331.947 62.2833 331.385 61.7299 331.385 61.048C331.385 60.3644 331.932 59.8126 332.614 59.8126H332.628C333.31 59.8126 333.864 60.3644 333.864 61.048C333.864 61.7299 333.31 62.2833 332.628 62.2833ZM325.368 55.937C324.686 55.937 324.124 55.3836 324.124 54.7017C324.124 54.0198 324.671 53.4663 325.353 53.4663H325.368C326.05 53.4663 326.603 54.0198 326.603 54.7017C326.603 55.3836 326.05 55.937 325.368 55.937ZM325.368 62.2833C324.686 62.2833 324.124 61.7299 324.124 61.048C324.124 60.3644 324.671 59.8126 325.353 59.8126H325.368C326.05 59.8126 326.603 60.3644 326.603 61.048C326.603 61.7299 326.05 62.2833 325.368 62.2833ZM348.451 49.4523H316.762C316.594 50.803 316.507 52.2738 316.507 53.9028C316.507 65.7867 320.72 70 332.605 70C344.493 70 348.706 65.7867 348.706 53.9028C348.706 52.2738 348.619 50.803 348.451 49.4523Z" fill="#F2E9D8"/>
</g>
</svg>
